<?xml version="1.0" standalone="no"?><!DOCTYPE svg PUBLIC "-//W3C//DTD SVG 1.1//EN" "http://www.w3.org/Graphics/SVG/1.1/DTD/svg11.dtd"><svg t="1692709678556" class="icon" viewBox="0 0 1169 1024" version="1.1" xmlns="http://www.w3.org/2000/svg" p-id="7073" xmlns:xlink="http://www.w3.org/1999/xlink" width="146.125" height="128"><path d="M552.075 886.996c0 0 0 0 0 0-28.448 0-54.307-2.585-82.758-10.345-183.618-46.553-297.407-232.754-250.857-416.368 38.793-155.167 175.857-261.201 333.61-261.201 28.448 0 54.307 2.585 82.758 10.345 2.585 0 5.173 2.585 7.755 5.173 2.585 2.585 2.585 7.755 2.585 10.345l-77.586 310.338c294.82-90.516 302.576-90.516 302.576-90.516 5.173 0 10.345 5.173 12.929 10.345 15.518 56.894 15.518 113.794 2.585 170.687-38.793 152.583-175.857 261.201-333.61 261.201zM552.075 224.943c-147.409 0-274.13 100.857-307.751 243.097-41.379 170.687 62.066 343.955 232.754 385.333 25.863 5.173 51.723 10.345 77.586 10.345 147.409 0 274.13-100.857 307.751-243.097 12.929-49.138 12.929-98.272 2.585-144.822-41.379 10.345-201.721 59.481-310.338 93.102-5.173 2.585-10.345 0-12.929-2.585-2.585-2.585-5.173-7.755-2.585-12.929l77.586-320.683c-23.278-7.755-43.965-7.755-64.651-7.755z" fill="#231F20" p-id="7074"></path><path d="M683.97 421.492c-2.585 0-7.755 0-7.755-2.585-2.585-2.585-5.173-7.755-2.585-12.929l69.825-276.716c2.585-7.755 7.755-10.345 15.518-10.345 103.444 25.863 183.618 103.444 214.647 206.893 2.585 2.585 0 7.755 0 10.345-7.755 5.173-10.345 5.173-12.929 7.755l-274.13 77.586c0 0-2.585 0-2.585 0zM761.555 149.945l-59.481 240.513 237.925-67.239c-28.448-85.343-95.687-147.409-178.445-173.274z" fill="#231F20" p-id="7075"></path></svg>